<svg width="55" height="18" viewBox="0 0 55 18" fill="none" xmlns="http://www.w3.org/2000/svg">
<path d="M41.552 11.744L39.752 7.08C39.6987 6.94133 39.6427 6.78133 39.584 6.6C39.5253 6.41333 39.4693 6.216 39.416 6.008C39.304 6.44 39.1893 6.8 39.072 7.088L37.272 11.744H41.552ZM44.784 16H43.584C43.4453 16 43.3333 15.9653 43.248 15.896C43.1627 15.8267 43.0987 15.7387 43.056 15.632L41.984 12.864H36.84L35.768 15.632C35.736 15.728 35.6747 15.8133 35.584 15.888C35.4933 15.9627 35.3813 16 35.248 16H34.048L38.632 4.536H40.2L44.784 16ZM53.3081 11.168H50.0441V14.608H48.8841V11.168H45.6361V10.088H48.8841V6.672H50.0441V10.088H53.3081V11.168Z" fill="black"/>
<path d="M23.608 12.276L22.033 8.195C21.9863 8.07367 21.9373 7.93367 21.886 7.775C21.8347 7.61167 21.7857 7.439 21.739 7.257C21.641 7.635 21.5407 7.95 21.438 8.202L19.863 12.276H23.608ZM26.436 16H25.386C25.2647 16 25.1667 15.9697 25.092 15.909C25.0173 15.8483 24.9613 15.7713 24.924 15.678L23.986 13.256H19.485L18.547 15.678C18.519 15.762 18.4653 15.8367 18.386 15.902C18.3067 15.9673 18.2087 16 18.092 16H17.042L21.053 5.969H22.425L26.436 16Z" fill="black"/>
<path d="M5.664 12.808L4.314 9.31C4.274 9.206 4.232 9.086 4.188 8.95C4.144 8.81 4.102 8.662 4.062 8.506C3.978 8.83 3.892 9.1 3.804 9.316L2.454 12.808H5.664ZM8.088 16H7.188C7.084 16 7 15.974 6.936 15.922C6.872 15.87 6.824 15.804 6.792 15.724L5.988 13.648H2.13L1.326 15.724C1.302 15.796 1.256 15.86 1.188 15.916C1.12 15.972 1.036 16 0.936 16H0.036L3.474 7.402H4.65L8.088 16ZM8.87109 11.95H11.8351V12.856H8.87109V11.95Z" fill="black"/>
</svg>
